<?xml version="1.0"?>
<svg xmlns:rdf="http://www.w3.org/1999/02/22-rdf-syntax-ns#" xmlns="http://www.w3.org/2000/svg" xmlns:cc="http://web.resource.org/cc/" xmlns:dc="http://purl.org/dc/elements/1.1/" id="svg2" viewBox="0 0 162 162" version="1.0">
 <g id="layer1">
  <g id="g2209">
   <path id="path3241" d="m149.25 81c0 37.67-30.58 68.25-68.25 68.25-37.674 0-68.25-30.58-68.25-68.25 0-37.674 30.576-68.25 68.25-68.25 37.67 0 68.25 30.576 68.25 68.25z" fill="#800000"/>
   <path id="path3239" d="m148 81c0 36.98-30.02 67-67 67-36.985 0-67.002-30.02-67.002-67 0-36.985 30.017-67.002 67.002-67.002 36.98 0 67 30.017 67 67.002z" fill="#ffa07a"/>
   <path id="path2192" d="m23.75 65v50.81c4.564 7.48 10.559 14.01 17.594 19.19h32.406v-70h-50z" fill="#a52a2a"/>
   <path id="rect2160" d="m73.75 65v70h12.25v2h31v-2h3.66c2.88-2.12 5.58-4.48 8.09-7.03v-62.97h-55z" fill="#800000"/>
   <path id="path2190" fill="#952626" stroke-opacity="0" d="m68.75 70h-50c1-5 14-25 20-30 3-2 50-1 50-1l-20 31z"/>
   <path id="rect4175" d="m116.75 35h7v20h-7v-20z" fill="#a52a2a"/>
   <path id="path3134" fill="#800000" stroke-opacity="0" d="m108.75 30c-5-5-10-5-15 0s-24 35-25 40h65c-1-5-20-35-25-40z"/>
   <path id="rect3136" fill="#ffa07a" d="m88.75 97.516c5-5.355 20-5.355 25 0v37.484h-25v-37.484z"/>
   <path id="path3141" fill="#a52a2a" d="m110.75 120c0 1.1-0.9 2-2 2s-2-0.9-2-2 0.9-2 2-2 2 0.9 2 2z"/>
   <path id="path2287" d="m38.75 90v7h8v-7h-8zm11 0v7h8v-7h-8zm-11 9v7h8v-7h-8zm11 0v7h8v-7h-8zm-11 9v7h8v-7h-8zm11 0v7h8v-7h-8z" fill="#ffa07a"/>
   <path id="rect2195" d="m28.75 90h9v25h-9v-25z" fill="#800000"/>
   <path id="rect4153" d="m58.75 90h9v25h-9v-25z" fill="#800000"/>
   <path id="rect4155" d="m34.75 116h27v4h-27v-4z" fill="#800000"/>
   <path id="rect4157" d="m34.75 85h27v4h-27v-4z" fill="#800000"/>
   <path id="path4161" d="m111.25 52c0 5.52-4.48 10-10 10s-10-4.48-10-10 4.48-10 10-10 10 4.48 10 10z" fill="#ffa07a"/>
   <path id="rect4177" fill="#a52a2a" d="m117.75 31c0-1 2-1 2 0v6h-2v-6z"/>
   <path id="rect4179" fill="#a52a2a" d="m120.75 31c0-1 2-1 2 0v6h-2v-6z"/>
   <path id="rect4186" d="m101.25 98.5c-0.85 0-1.691 0.102-2.5 0.281v8.219h5v-8.219c-0.81-0.179-1.65-0.281-2.5-0.281zm-4.5 0.937c-0.35 0.165-0.689 0.355-1 0.563-3 2-2 7-2 7h3v-7.563zm9 0v7.563h3s1-5-2-7c-0.31-0.208-0.65-0.398-1-0.563z" fill="#a52a2a"/>
   <path id="path4195" d="m100.25 44.562c-3.345 0.444-5.994 3.093-6.437 6.438h6.437v-6.438zm2 0v6.438h6.44c-0.45-3.345-3.09-5.994-6.44-6.438zm-8.437 8.438c0.443 3.345 3.092 5.994 6.437 6.437v-6.437h-6.437zm8.437 0v6.437c3.35-0.443 5.99-3.092 6.44-6.437h-6.44z" fill="#a52a2a"/>
   <path id="path2198" fill="#800000" d="m84 138v2h29c1.19-0.64 2.86-1.29 4-2h-33z"/>
   <path id="path2200" fill="#800000" d="m82 141v2h25c1.51-0.62 2.55-1.28 4-2h-29z"/>
  </g>
 </g>
 <metadata>
  <rdf:RDF>
   <cc:Work>
    <dc:format>image/svg+xml</dc:format>
    <dc:type rdf:resource="http://purl.org/dc/dcmitype/StillImage"/>
    <cc:license rdf:resource="http://creativecommons.org/licenses/publicdomain/"/>
    <dc:publisher>
     <cc:Agent rdf:about="http://openclipart.org/">
      <dc:title>Openclipart</dc:title>
     </cc:Agent>
    </dc:publisher>
   </cc:Work>
   <cc:License rdf:about="http://creativecommons.org/licenses/publicdomain/">
    <cc:permits rdf:resource="http://creativecommons.org/ns#Reproduction"/>
    <cc:permits rdf:resource="http://creativecommons.org/ns#Distribution"/>
    <cc:permits rdf:resource="http://creativecommons.org/ns#DerivativeWorks"/>
   </cc:License>
  </rdf:RDF>
 </metadata>
</svg>
